<svg xmlns="http://www.w3.org/2000/svg" viewBox="-243 353.9 125 85.3" enable-background="new -243 353.9 125 85.3"><path d="m-229.7 402h-13.3v-37.6c0-5.8 4.7-10.5 10.5-10.5h24v34c-.2-.2-.3-.4-.5-.6-6.4-6.5-15.6-7.7-20.6-2.7-4.3 4.1-4.1 11.3-.1 17.4m9.8 29.9l-10.9-11.5 5.1-4.6h-17.4v12.9c0 5.8 4.7 10.5 10.5 10.5h24v-17.9l-11.3 10.6zm26.3-44.6c6.4-6.5 15.6-7.7 20.6-2.7 4.2 4.2 4.1 11.4.1 17.4h54.9v-37.6c0-5.8-4.7-10.5-10.5-10.5h-65.6v34c.2-.3.3-.4.5-.6m21.7 33.7l-11.5 10.9-10.7-11.3v18.6h65.6c5.8 0 10.5-4.7 10.5-10.5v-12.9h-59.1l5.2 5.2zm-18.5-28.1c-3.3 3.3-3.9 13.2-3.9 13.2s9.9-.7 13.2-4c3.3-3.3 3.9-8 1.3-10.6-2.6-2.5-7.3-1.9-10.6 1.4m-32.4-1.4c-2.6 2.5-2 7.3 1.3 10.6 3.3 3.3 13.2 4 13.2 4s-.6-9.9-3.9-13.2c-3.3-3.3-8-3.9-10.6-1.4"/></svg>